<svg width="120" height="120" viewBox="0 0 120 120" xmlns="http://www.w3.org/2000/svg">
<path d="M60 120.076C93.1371 120.076 120 93.2128 120 60.0757C120 26.9386 93.1371 0.0756836 60 0.0756836C26.8629 0.0756836 0 26.9386 0 60.0757C0 93.2128 26.8629 120.076 60 120.076Z" fill="#50E6FF"/>
<path d="M105 61.0239C104.676 51.0579 97.2185 42.8065 87.2755 41.5206C86.6271 27.5897 74.8468 16.6592 60.6888 17.0879C49.4489 16.8735 39.2898 23.7319 35.399 34.1265C23.5107 35.6267 14.4323 45.5927 14 57.4876C14.5404 70.9899 25.9964 81.4917 39.614 81.063C40.3705 81.063 41.1271 81.063 41.8836 80.9559H83.3848C83.709 80.9559 84.1413 80.8487 84.4656 80.7415C95.5974 80.7415 104.676 72.0615 105 61.0239Z" fill="#0078D4"/>
<path d="M63.7356 84.2826L60.6551 87.363L43.7126 70.4205L46.7931 67.34L63.7356 84.2826Z" fill="#003067"/>
<path d="M52.954 91.9837C49.6554 95.2823 44.5909 95.7384 40.8039 93.3522L36.0115 98.1446L32.1609 94.294L37.1759 89.279C35.4355 85.6355 36.0741 81.1395 39.0919 78.1217L45.2528 71.9607L59.1149 85.8228L52.954 91.9837Z" fill="#003067"/>
<path d="M72.2069 75.8113L75.2874 72.7308L73.7471 71.1906L79.908 65.0297C83.2066 61.7312 83.6627 56.6666 81.2765 52.8796L86.069 48.0872L82.2184 44.2366L77.2033 49.2517C73.5598 47.5112 69.0638 48.1498 66.046 51.1676L59.8851 57.3285L58.3448 55.7883L55.2644 58.8687L59.8851 63.4894L55.2013 68.1732C54.8108 68.5637 54.8108 69.1969 55.2013 69.5874L56.0975 70.4835C56.488 70.874 57.1212 70.874 57.5117 70.4835L62.1954 65.7998L65.2759 68.8803L60.5922 73.564C60.2016 73.9545 60.2016 74.5877 60.5922 74.9782L61.4883 75.8743C61.8788 76.2649 62.512 76.2649 62.9025 75.8743L67.5862 71.1906L72.2069 75.8113Z" fill="#003067"/>
</svg>
